# xmcd CD database file
#
# Track frame offsets:
#	150
#	13162
#	27197
#	43455
#	59175
#	72772
#	93497
#	107852
#	120897
#	134352
#	150125
#	163107
#	179282
#	191362
#	204392
#	217762
#	233200
#	257387
#
# Disc length: 3599 seconds
#
# Revision: 0
# Processed by: cddbd v1.5.2PL0 Copyright (c) Steve Scherf et al.
# Submitted via: CdAid (MTCDDB.DLL V2003.12.21)
#
DISCID=f10e0d12
DTITLE=Various Artist - Arus
DYEAR=2000
DGENRE=Country
TTITLE0=Batuque do Tambor
TTITLE1=Ninguém Desata Esse Nó
TTITLE2=X da Emoção
TTITLE3=Fala Coração
TTITLE4=O Chupa-Cabra
TTITLE5=Outra Vez Estou Chorando
TTITLE6=Quem Sabe Um Dia
TTITLE7=Teus Vestígios
TTITLE8=Gostoso Pra Valer
TTITLE9=Deixa Eu Te Chamar de Meu Bem
TTITLE10=Se Enamora
TTITLE11=Viva! Bravo!
TTITLE12=Nego Zezé
TTITLE13=Samba Natureza
TTITLE14=A Mulher Que Eu Amava Era Cega
TTITLE15=Sombra do Jacarandá
TTITLE16=Navegação
TTITLE17=Calango À Beira-Mar
EXTD=ID3G:   2 YEAR: 2000
EXTT0=
EXTT1=
EXTT2=
EXTT3=
EXTT4=
EXTT5=
EXTT6=
EXTT7=
EXTT8=
EXTT9=
EXTT10=
EXTT11=
EXTT12=
EXTT13=
EXTT14=
EXTT15=
EXTT16=
EXTT17=
PLAYORDER=
